<svg width="322" height="406" viewBox="0 0 322 406" fill="none" xmlns="http://www.w3.org/2000/svg">
<path opacity="0.5" d="M150.941 124.853C178.961 108.799 202.125 123.803 206.223 158.447C206.936 164.44 202.303 172.357 196.646 175.594L105.237 227.998C99.58 231.235 94.9472 228.611 95.6599 221.787C99.7581 182.549 122.967 140.906 150.941 124.853Z" fill="url(#paint0_linear_45_2597)"/>
<path opacity="0.5" d="M119.715 79.8848C119.715 103.812 133.791 115.098 151.164 105.124C168.537 95.1511 182.614 67.7243 182.614 43.797C182.614 19.8697 168.537 8.584 151.164 18.5574C133.791 28.5307 119.715 55.9575 119.715 79.8848Z" fill="url(#paint1_linear_45_2597)"/>
<path opacity="0.07" d="M132.945 110.505C160.964 94.4512 184.128 109.455 188.226 144.099C188.939 150.092 184.306 158.01 178.649 161.247L87.2408 213.65C81.5834 216.887 76.9507 214.263 77.6634 207.439C81.7616 168.202 104.926 126.558 132.945 110.505Z" fill="url(#paint2_linear_45_2597)"/>
<path opacity="0.07" d="M101.718 65.5372C101.718 89.4646 115.795 100.75 133.168 90.7769C150.541 80.8035 164.617 53.3767 164.617 29.4494C164.617 5.52206 150.541 -5.76359 133.168 4.20978C115.795 14.1831 101.718 41.6099 101.718 65.5372Z" fill="url(#paint3_linear_45_2597)"/>
<path opacity="0.2" d="M41.1802 248.239C41.1802 246.624 42.0482 245.134 43.4527 244.338L113.643 204.543C116.632 202.848 120.338 205.007 120.338 208.443V241.252L41.1802 286.132V248.239Z" fill="url(#paint4_linear_45_2597)"/>
<path d="M104.257 223.449C104.257 226.773 106.262 228.348 108.757 226.948C111.251 225.548 113.256 221.699 113.256 218.375C113.256 215.05 111.251 213.475 108.757 214.875C106.262 216.275 104.257 220.124 104.257 223.449Z" fill="#E559F9"/>
<path opacity="0.15" d="M100.07 222.005L76.2825 235.522V240.377L100.115 226.861L100.07 222.005Z" fill="#FEFEFE"/>
<path opacity="0.15" d="M100.07 231.76L49.3767 260.499V265.442L100.07 236.703V231.76Z" fill="#FEFEFE"/>
<path opacity="0.2" d="M201.991 201.435C201.991 199.82 202.86 198.33 204.265 197.534L274.455 157.777C277.445 156.084 281.149 158.243 281.149 161.679V194.491L201.991 239.371V201.435Z" fill="url(#paint5_linear_45_2597)"/>
<path d="M265.068 176.644C265.068 179.969 267.073 181.543 269.567 180.143C272.062 178.744 274.067 174.894 274.067 171.57C274.067 168.245 272.062 166.671 269.567 168.07C267.073 169.47 265.068 173.32 265.068 176.644Z" fill="#835AFD"/>
<path opacity="0.15" d="M261.014 175.419L246.671 183.555V188.498L261.014 180.362V175.419Z" fill="#FEFEFE"/>
<path opacity="0.15" d="M260.881 185.174L210.188 213.913V218.856L260.881 190.117V185.174Z" fill="#FEFEFE"/>
<path opacity="0.3" d="M150.982 251.316C150.984 247.878 147.277 245.717 144.286 247.413L3.27069 327.363C1.86697 328.159 0.999107 329.647 0.998171 331.261L0.95515 405.419L137.711 327.907L148.991 331.524C149.956 331.834 150.942 331.115 150.942 330.102L150.982 251.316Z" fill="url(#paint6_linear_45_2597)"/>
<path d="M120.517 286.614C120.517 292.956 124.303 295.887 129.025 293.219C133.747 290.55 137.533 283.245 137.533 276.946C137.533 270.604 133.747 267.673 129.025 270.341C124.348 273.01 120.517 280.315 120.517 286.614Z" fill="#E559F9"/>
<path opacity="0.15" d="M112.409 284.164L79.5344 302.798V309.535L112.409 290.9V284.164Z" fill="#FEFEFE"/>
<path opacity="0.15" d="M112.409 297.68L14.23 353.321V360.058L112.409 304.417V297.68Z" fill="#FEFEFE"/>
<path opacity="0.15" d="M112.409 311.197L35.6566 354.721V361.458L112.409 317.933V311.197Z" fill="#FEFEFE"/>
<path opacity="0.3" d="M171.253 268.272C171.254 266.658 172.122 265.169 173.527 264.373L314.541 184.465C317.532 182.77 321.238 184.931 321.236 188.368L321.196 257.437L184.44 334.949L173.939 350.226C173.107 351.436 171.212 350.847 171.212 349.379L171.253 268.272Z" fill="url(#paint7_linear_45_2597)"/>
<path d="M201.724 274.103C201.724 280.446 197.893 287.707 193.216 290.375C188.494 293.044 184.707 290.069 184.707 283.727C184.707 277.384 188.538 270.122 193.216 267.454C197.893 264.83 201.724 267.804 201.724 274.103Z" fill="#835AFD"/>
<path opacity="0.15" d="M209.831 262.511L242.706 243.877V250.613L209.831 269.248V262.511Z" fill="#FEFEFE"/>
<path opacity="0.15" d="M209.787 275.984L307.966 220.343V227.08L209.831 282.721L209.787 275.984Z" fill="#FEFEFE"/>
<path opacity="0.15" d="M209.787 289.501L286.539 245.976V252.713L209.787 296.237V289.501Z" fill="#FEFEFE"/>
<path opacity="0.2" d="M258.787 313.472C256.115 314.959 253.976 318.633 253.976 321.695V335.037L244.978 340.111C242.305 341.598 240.167 345.273 240.167 348.291C240.167 351.309 242.305 352.534 244.978 351.047L253.976 345.929V359.27C253.976 362.289 256.115 363.513 258.787 362.026C261.46 360.539 263.598 356.864 263.598 353.846V340.505L272.597 335.43C275.269 333.943 277.408 330.269 277.408 327.251C277.408 324.232 275.269 323.008 272.597 324.495L263.598 329.569V316.227C263.643 313.165 261.46 311.941 258.787 313.472Z" fill="url(#paint8_linear_45_2597)"/>
<path opacity="0.2" d="M65.235 142.568L52.8513 166.452C51.1585 169.733 51.4258 173.013 53.4749 173.801C55.524 174.588 58.5531 172.532 60.2459 169.251L60.3795 168.945V195.453C60.3795 198.472 62.5177 199.697 65.1905 198.209C67.8633 196.678 70.0015 193.048 70.0015 190.029V163.521L70.1351 163.652C71.8278 165.008 74.9015 163.609 76.9061 160.503C78.9552 157.397 79.2225 153.81 77.5297 152.454L65.235 142.568Z" fill="url(#paint9_linear_45_2597)"/>
<defs>
<linearGradient id="paint0_linear_45_2597" x1="35.3553" y1="98.6732" x2="147.7" y2="182.13" gradientUnits="userSpaceOnUse">
<stop stop-color="white"/>
<stop offset="1" stop-color="white" stop-opacity="0"/>
</linearGradient>
<linearGradient id="paint1_linear_45_2597" x1="93.3447" y1="20.4321" x2="205.689" y2="103.888" gradientUnits="userSpaceOnUse">
<stop stop-color="white"/>
<stop offset="1" stop-color="white" stop-opacity="0"/>
</linearGradient>
<linearGradient id="paint2_linear_45_2597" x1="17.3512" y1="84.3205" x2="129.696" y2="167.777" gradientUnits="userSpaceOnUse">
<stop stop-color="white"/>
<stop offset="1" stop-color="white" stop-opacity="0"/>
</linearGradient>
<linearGradient id="paint3_linear_45_2597" x1="75.3406" y1="6.07908" x2="187.685" y2="89.5353" gradientUnits="userSpaceOnUse">
<stop stop-color="white"/>
<stop offset="1" stop-color="white" stop-opacity="0"/>
</linearGradient>
<linearGradient id="paint4_linear_45_2597" x1="71.8381" y1="228.255" x2="89.211" y2="258.906" gradientUnits="userSpaceOnUse">
<stop stop-color="white"/>
<stop offset="1" stop-color="white" stop-opacity="0"/>
</linearGradient>
<linearGradient id="paint5_linear_45_2597" x1="232.649" y1="181.455" x2="250.022" y2="212.107" gradientUnits="userSpaceOnUse">
<stop stop-color="white"/>
<stop offset="1" stop-color="white" stop-opacity="0"/>
</linearGradient>
<linearGradient id="paint6_linear_45_2597" x1="86.5633" y1="246.113" x2="67.8536" y2="400.651" gradientUnits="userSpaceOnUse">
<stop stop-color="white"/>
<stop offset="1" stop-color="white" stop-opacity="0"/>
</linearGradient>
<linearGradient id="paint7_linear_45_2597" x1="203.96" y1="234.919" x2="280.337" y2="295.819" gradientUnits="userSpaceOnUse">
<stop stop-color="white"/>
<stop offset="1" stop-color="white" stop-opacity="0"/>
</linearGradient>
<linearGradient id="paint8_linear_45_2597" x1="249.497" y1="330.512" x2="272.493" y2="348.993" gradientUnits="userSpaceOnUse">
<stop stop-color="white"/>
<stop offset="1" stop-color="white" stop-opacity="0"/>
</linearGradient>
<linearGradient id="paint9_linear_45_2597" x1="56.4322" y1="166.662" x2="78.8296" y2="179.376" gradientUnits="userSpaceOnUse">
<stop stop-color="white"/>
<stop offset="1" stop-color="white" stop-opacity="0"/>
</linearGradient>
</defs>
</svg>
